<?xml version="1.0" encoding="UTF-8" standalone="no"?>
<svg
   xmlns:dc="http://purl.org/dc/elements/1.1/"
   xmlns:cc="http://creativecommons.org/ns#"
   xmlns:rdf="http://www.w3.org/1999/02/22-rdf-syntax-ns#"
   xmlns:svg="http://www.w3.org/2000/svg"
   xmlns="http://www.w3.org/2000/svg"
   viewBox="0 0 793.70135 1122.52"
   height="1122.52"
   width="793.70135"
   xml:space="preserve"
   id="svg2"
   version="1.1"><metadata
     id="metadata8"><rdf:RDF><cc:Work
         rdf:about=""><dc:format>image/svg+xml</dc:format><dc:type
           rdf:resource="http://purl.org/dc/dcmitype/StillImage" /></cc:Work></rdf:RDF></metadata><defs
     id="defs6"><clipPath
       id="clipPath18"
       clipPathUnits="userSpaceOnUse"><path
         id="path16"
         d="M 0,841.89 H 595.276 V 0 H 0 Z" /></clipPath><radialGradient
       id="radialGradient74"
       spreadMethod="pad"
       gradientTransform="matrix(40.304687,46.767845,46.767845,-40.304687,40.726452,389.39603)"
       gradientUnits="userSpaceOnUse"
       r="1"
       cy="0"
       cx="0"
       fy="0"
       fx="0"><stop
         id="stop64"
         offset="0"
         style="stop-opacity:1;stop-color:#ef7f5e" /><stop
         id="stop66"
         offset="0.61083164"
         style="stop-opacity:1;stop-color:#eb4f4b" /><stop
         id="stop68"
         offset="0.629236"
         style="stop-opacity:1;stop-color:#eb4f4b" /><stop
         id="stop70"
         offset="0.6332664"
         style="stop-opacity:1;stop-color:#eb4f4b" /><stop
         id="stop72"
         offset="1"
         style="stop-opacity:1;stop-color:#eb3a4c" /></radialGradient><clipPath
       id="clipPath84"
       clipPathUnits="userSpaceOnUse"><path
         id="path82"
         d="M 0,841.89 H 595.276 V 0 H 0 Z" /></clipPath></defs><g
     transform="matrix(1.3333333,0,0,-1.3333333,0,1122.52)"
     id="g10"><g
       id="g12"><g
         clip-path="url(#clipPath18)"
         id="g14"><g
           transform="translate(231.5908,500.8729)"
           id="g20"><path
             id="path22"
             style="fill:#231f20;fill-opacity:1;fill-rule:nonzero;stroke:none"
             d="m 0,0 h 19.109 c 1.787,0 3.234,-1.448 3.234,-3.234 v -37.463 c 0,-3.045 3.825,-4.403 5.745,-2.039 l 13.074,16.098 c 0.614,0.756 1.536,1.195 2.51,1.195 h 20.323 c 2.771,0 4.259,-3.258 2.444,-5.352 L 47.297,-52.89 c -0.913,-1.053 -1.047,-2.574 -0.334,-3.773 l 21.873,-36.719 c 1.284,-2.157 -0.269,-4.89 -2.778,-4.89 H 45.457 c -1.143,0 -2.201,0.604 -2.783,1.586 l -11.437,19.307 c -1.128,1.904 -3.792,2.138 -5.235,0.46 l -2.877,-3.347 c -0.504,-0.587 -0.782,-1.335 -0.782,-2.109 v -12.663 c 0,-1.786 -1.447,-3.234 -3.234,-3.234 H 0 c -1.786,0 -3.234,1.448 -3.234,3.234 V -3.234 C -3.234,-1.448 -1.786,0 0,0" /></g><g
           transform="translate(311.8252,500.8729)"
           id="g24"><path
             id="path26"
             style="fill:#231f20;fill-opacity:1;fill-rule:nonzero;stroke:none"
             d="m 0,0 h 19.108 c 1.787,0 3.235,-1.448 3.235,-3.234 v -91.804 c 0,-1.786 -1.448,-3.234 -3.235,-3.234 H 0 c -1.787,0 -3.234,1.448 -3.234,3.234 V -3.234 C -3.234,-1.448 -1.787,0 0,0" /></g><g
           transform="translate(351.1191,475.4301)"
           id="g28"><path
             id="path30"
             style="fill:#231f20;fill-opacity:1;fill-rule:nonzero;stroke:none"
             d="m 0,0 h 19.109 c 1.787,0 3.235,-1.448 3.235,-3.234 v -66.361 c 0,-1.786 -1.448,-3.234 -3.235,-3.234 H 0 c -1.786,0 -3.234,1.448 -3.234,3.234 V -3.234 C -3.234,-1.448 -1.786,0 0,0 m -0.538,25.443 h 20.185 c 1.787,0 3.235,-1.448 3.235,-3.235 V 9.831 c 0,-1.787 -1.448,-3.235 -3.235,-3.235 H -0.538 c -1.786,0 -3.234,1.448 -3.234,3.235 v 12.377 c 0,1.787 1.448,3.235 3.234,3.235" /></g><g
           transform="translate(390.1582,500.8729)"
           id="g32"><path
             id="path34"
             style="fill:#231f20;fill-opacity:1;fill-rule:nonzero;stroke:none"
             d="m 0,0 h 19.108 c 1.787,0 3.235,-1.448 3.235,-3.234 v -37.463 c 0,-3.045 3.825,-4.403 5.745,-2.039 l 13.073,16.098 c 0.614,0.756 1.537,1.195 2.511,1.195 h 20.322 c 2.772,0 4.259,-3.258 2.444,-5.352 L 47.297,-52.89 c -0.913,-1.053 -1.048,-2.574 -0.334,-3.773 l 21.873,-36.719 c 1.284,-2.157 -0.27,-4.89 -2.779,-4.89 H 45.456 c -1.143,0 -2.2,0.604 -2.782,1.586 l -11.438,19.307 c -1.128,1.904 -3.792,2.138 -5.235,0.46 l -2.876,-3.347 c -0.505,-0.587 -0.782,-1.335 -0.782,-2.109 v -12.663 c 0,-1.786 -1.448,-3.234 -3.235,-3.234 H 0 c -1.786,0 -3.234,1.448 -3.234,3.234 V -3.234 C -3.234,-1.448 -1.786,0 0,0" /></g><g
           transform="translate(470.4053,475.4301)"
           id="g36"><path
             id="path38"
             style="fill:#231f20;fill-opacity:1;fill-rule:nonzero;stroke:none"
             d="m 0,0 h 19.109 c 1.787,0 3.235,-1.448 3.235,-3.234 v -66.361 c 0,-1.786 -1.448,-3.234 -3.235,-3.234 H 0 c -1.786,0 -3.234,1.448 -3.234,3.234 V -3.234 C -3.234,-1.448 -1.786,0 0,0 m -0.539,25.443 h 20.186 c 1.787,0 3.235,-1.448 3.235,-3.235 V 9.831 c 0,-1.787 -1.448,-3.235 -3.235,-3.235 H -0.539 c -1.786,0 -3.233,1.448 -3.233,3.235 v 12.377 c 0,1.787 1.447,3.235 3.233,3.235" /></g><g
           transform="translate(502.3613,414.3969)"
           id="g40"><path
             id="path42"
             style="fill:#231f20;fill-opacity:1;fill-rule:nonzero;stroke:none"
             d="m 0,0 6.226,10.083 c 0.921,1.494 2.865,1.975 4.381,1.091 7.59,-4.422 15.621,-6.681 22.359,-6.681 4.442,0 6.462,1.346 6.462,4.174 0,2.826 -4.038,4.172 -11.712,6.192 -14.404,3.904 -25.847,8.616 -25.847,23.558 0,15.481 12.385,24.097 29.213,24.097 9.501,0 19.324,-2.472 27.262,-6.838 1.556,-0.856 2.124,-2.813 1.278,-4.375 L 53.867,40.677 C 53.04,39.151 51.156,38.55 49.6,39.316 c -6.733,3.315 -13.697,5.293 -18.788,5.293 -3.904,0 -5.922,-1.48 -5.922,-3.769 0,-2.827 4.172,-4.173 11.845,-6.462 14.405,-4.172 25.847,-9.019 25.847,-23.423 0,-16.019 -11.981,-24.366 -29.751,-24.366 -11.194,0 -22.277,2.923 -31.809,8.974 C -0.475,-3.486 -0.932,-1.509 0,0" /></g><g
           transform="translate(178.4546,477.9315)"
           id="g44"><path
             id="path46"
             style="fill:#003000;fill-opacity:1;fill-rule:evenodd;stroke:none"
             d="m 0,0 v -58.713 c 0,-22.942 -18.626,-41.569 -41.568,-41.569 h -58.713 C -44.935,-100.282 0,-55.347 0,0" /></g><g
           transform="translate(78.5415,377.6566)"
           id="g48"><path
             id="path50"
             style="fill:#e23b00;fill-opacity:1;fill-rule:nonzero;stroke:none"
             d="m 0,0 h -6.472 c -23.023,0 -41.687,18.664 -41.687,41.688 v 64.697 c 0,23.023 18.664,41.687 41.687,41.687 h 64.698 c 23.023,0 41.687,-18.664 41.687,-41.687 V 99.913 C 99.913,44.732 55.18,0 0,0" /></g></g></g><g
       id="g52"><g
         id="g54"><g
           id="g60"><g
             id="g62"><path
               id="path76"
               style="fill:url(#radialGradient74);stroke:none"
               d="m 30.333,419.314 c 0,-16.418 9.539,-30.626 23.373,-37.378 v 0 c 31.028,13.254 37.384,42.703 37.384,42.703 v 0 l -6.775,32.681 -53.982,20.063 z" /></g></g></g></g><g
       id="g78"><g
         clip-path="url(#clipPath84)"
         id="g80"><g
           transform="translate(68.7612,538.3143)"
           id="g86"><path
             id="path88"
             style="fill:#ff33ff;fill-opacity:1;fill-rule:evenodd;stroke:none"
             d="m 0,0 c 23.544,-0.001 42.659,-19.115 42.659,-42.659 0,0 -0.023,-11.517 -0.068,-21.885 -0.029,-0.713 -0.584,-1.293 -1.295,-1.356 -0.712,-0.062 -1.358,0.414 -1.511,1.111 -7.273,27.907 -28.132,50.344 -55.07,59.859 -1.135,0.406 -1.819,1.563 -1.628,2.754 0.191,1.191 1.204,2.076 2.41,2.107 C -6.714,-0.013 0,0 0,0" /></g><g
           transform="translate(146.9126,525.9359)"
           id="g90"><path
             id="path92"
             style="fill:#ff33ff;fill-opacity:1;fill-rule:evenodd;stroke:none"
             d="m 0,0 c -20.904,0 -37.874,-16.971 -37.874,-37.874 0,0 0.02,-10.225 0.06,-19.43 0.026,-0.634 0.519,-1.148 1.15,-1.204 0.631,-0.055 1.206,0.367 1.341,0.987 6.458,24.776 24.976,44.696 48.893,53.144 1.008,0.36 1.616,1.389 1.446,2.445 -0.17,1.057 -1.069,1.844 -2.14,1.87 C 5.961,-0.012 0,0 0,0" /></g><g
           transform="translate(80.562,513.7523)"
           id="g94"><path
             id="path96"
             style="fill:#ffffff;fill-opacity:1;fill-rule:evenodd;stroke:none"
             d="m 0,0 c 19.923,0 36.099,-16.175 36.099,-36.098 0,-19.924 -16.176,-36.099 -36.099,-36.099 -19.923,0 -36.098,16.175 -36.098,36.099 C -36.098,-16.175 -19.923,0 0,0" /></g><g
           transform="translate(136.3462,510.9789)"
           id="g98"><path
             id="path100"
             style="fill:#ffffff;fill-opacity:1;fill-rule:evenodd;stroke:none"
             d="M 0,0 C 16.26,0 29.461,-13.201 29.461,-29.46 29.461,-45.72 16.26,-58.92 0,-58.92 c -16.259,0 -29.46,13.2 -29.46,29.46 C -29.46,-13.201 -16.259,0 0,0" /></g><g
           transform="translate(111.5737,464.2225)"
           id="g102"><path
             id="path104"
             style="fill:#ff33ff;fill-opacity:1;fill-rule:evenodd;stroke:none"
             d="M 0,0 C 6.191,1.083 12.096,-3.063 13.179,-9.254 14.014,-14.026 8.956,-24.373 6.594,-28.865 6.315,-29.39 5.81,-29.758 5.224,-29.86 4.639,-29.962 4.039,-29.789 3.599,-29.389 -0.148,-25.965 -8.419,-17.95 -9.254,-13.179 -10.336,-6.988 -6.19,-1.083 0,0" /></g><g
           transform="translate(80.562,492.7211)"
           id="g106"><path
             id="path108"
             style="fill:#ff33ff;fill-opacity:1;fill-rule:evenodd;stroke:none"
             d="m 0,0 c 8.316,0 15.067,-6.751 15.067,-15.067 0,-8.316 -6.751,-15.068 -15.067,-15.068 -8.315,0 -15.067,6.752 -15.067,15.068 C -15.067,-6.751 -8.315,0 0,0" /></g><g
           transform="translate(136.3462,496.5858)"
           id="g110"><path
             id="path112"
             style="fill:#ff33ff;fill-opacity:1;fill-rule:evenodd;stroke:none"
             d="m 0,0 c 8.316,0 15.068,-6.751 15.068,-15.067 0,-8.316 -6.752,-15.068 -15.068,-15.068 -8.315,0 -15.067,6.752 -15.067,15.068 C -15.067,-6.751 -8.315,0 0,0" /></g></g></g></g></svg>